<?xml version="1.0" encoding="UTF-8"?> <svg xmlns="http://www.w3.org/2000/svg" width="160" height="60" viewBox="0 0 160 60" fill="none"><g id="smalls"><path id="vector" d="M38.2901 36.5772C42.7977 36.5772 45.6722 35.1672 45.6722 32.4596C45.6722 26.3581 33.9869 30.1402 33.9869 26.8758C33.9869 25.7621 35.5825 25.2052 38.3633 25.2052C41.1442 25.2052 42.7773 26.0959 42.7602 27.4684H45.4491C45.4304 24.7795 42.6104 22.9983 38.2714 22.9983C34.1725 22.9983 31.315 24.444 31.315 27.0972C31.315 33.1254 43.0191 29.0623 43.0191 32.5686C43.0191 33.793 41.3315 34.3498 38.1777 34.3498C35.3765 34.3498 33.7263 33.4592 33.7451 32.1054H31C30.9625 34.7585 33.7638 36.5755 38.2901 36.5755M48.3594 36.2775H50.992V27.356L56.2796 36.2775H56.7802L62.0847 27.2998V36.2775H64.7191V23.2963H61.7322L56.5384 32.3302L51.3445 23.2963H48.3594V36.2809V36.2775ZM82.3237 36.2775H85.3668L77.4449 23.2929H74.6249L66.7234 36.2775H69.7665L71.3792 33.5324H80.7111L82.3237 36.2775ZM72.6955 31.3067L76.0536 25.6122L79.393 31.3067H72.6955ZM87.3694 36.2775H98.6852V34.0518H90.0038V23.2963H87.3694V36.2809V36.2775ZM100.873 36.2775H112.187V34.0518H103.508V23.2963H100.873V36.2809V36.2775ZM120.944 36.5755C125.451 36.5755 128.328 35.1655 128.328 32.4579C128.328 26.3564 116.641 30.1385 116.641 26.8741C116.641 25.7604 118.236 25.2035 121.019 25.2035C123.801 25.2035 125.433 26.0942 125.416 27.4667H128.104C128.086 24.7778 125.266 22.9966 120.925 22.9966C116.826 22.9966 113.969 24.4423 113.969 27.0955C113.969 33.1237 125.674 29.0606 125.674 32.5669C125.674 33.7913 123.987 34.3481 120.833 34.3481C118.032 34.3481 116.382 33.4575 116.4 32.1037H113.654C113.616 34.7568 116.417 36.5738 120.944 36.5738" fill="#92908A"></path></g></svg> 